<svg xmlns="http://www.w3.org/2000/svg" width="191.132" height="183.171" viewBox="0 0 191.132 183.171"><path d="M95.566.5C42.766.5,0,42.549,0,94.409c0,41.5,27.38,76.692,65.343,89.1,4.778.884,6.53-2.023,6.53-4.515,0-2.23-.08-8.139-.119-15.967-26.583,5.662-32.19-12.6-32.19-12.6-4.348-10.839-10.632-13.738-10.632-13.738-8.657-5.822.669-5.7.669-5.7,9.6.653,14.637,9.676,14.637,9.676,8.521,14.359,22.37,10.21,27.834,7.813.86-6.076,3.321-10.21,6.053-12.559-21.224-2.349-43.53-10.425-43.53-46.405a35.879,35.879,0,0,1,9.835-25.2c-1.075-2.373-4.3-11.922.836-24.855,0,0,8-2.517,26.281,9.628a91.628,91.628,0,0,1,47.783,0c18.158-12.145,26.161-9.628,26.161-9.628,5.137,12.933,1.911,22.482.956,24.855a36.024,36.024,0,0,1,9.8,25.2c0,36.076-22.339,44.016-43.6,46.326,3.345,2.819,6.451,8.577,6.451,17.377,0,12.567-.119,22.665-.119,25.715,0,2.461,1.672,5.4,6.57,4.46,38.234-12.328,65.59-47.544,65.59-88.98C191.132,42.549,148.342.5,95.566.5Z" transform="translate(0 -0.5)" fill="#fff"/></svg>